<svg width="10" height="16" viewBox="0 0 10 16" fill="none" xmlns="http://www.w3.org/2000/svg">
<path d="M1.15147 13.1515C0.682843 13.6201 0.682843 14.3799 1.15147 14.8485C1.6201 15.3172 2.3799 15.3172 2.84853 14.8485L1.15147 13.1515ZM8 8L8.84853 8.84853L9.69706 8L8.84853 7.15147L8 8ZM2.84853 1.15147C2.3799 0.682842 1.6201 0.682842 1.15147 1.15147C0.682843 1.6201 0.682843 2.3799 1.15147 2.84853L2.84853 1.15147ZM2.84853 14.8485L8.84853 8.84853L7.15147 7.15147L1.15147 13.1515L2.84853 14.8485ZM8.84853 7.15147L2.84853 1.15147L1.15147 2.84853L7.15147 8.84853L8.84853 7.15147Z" fill="#FFFFFF"/>
</svg>
